<svg xmlns="http://www.w3.org/2000/svg" width="24" height="24" fill="none"><g fill="#575757" clip-path="url(#a)"><path d="M12.635 14.092a2.183 2.183 0 0 1-2.724-1.458 2.184 2.184 0 1 1 2.724 1.458Z"/><path fill-rule="evenodd" d="M12 6.634c1.748 0 1.955.006 2.646.038.638.03.984.136 1.215.226.284.104.542.272.753.489.229.229.37.447.489.752.09.231.196.578.225 1.216.032.69.039.897.039 2.645s-.007 1.955-.039 2.645c-.029.638-.135.985-.225 1.216a2.032 2.032 0 0 1-.49.752c-.228.23-.447.37-.752.49-.23.09-.577.196-1.216.225-.69.032-.896.038-2.644.038-1.749 0-1.955-.006-2.645-.038-.639-.03-.985-.136-1.216-.226a2.033 2.033 0 0 1-.753-.489 2.032 2.032 0 0 1-.489-.752c-.09-.231-.196-.578-.225-1.216-.032-.69-.039-.897-.039-2.645s.007-1.955.039-2.645c.029-.638.135-.985.225-1.216a2.03 2.03 0 0 1 .49-.752c.228-.23.447-.37.752-.49.23-.09.577-.196 1.216-.225.69-.032.897-.038 2.645-.038Zm-1.287 2.258a3.365 3.365 0 1 0 2.576 6.217 3.365 3.365 0 0 0-2.576-6.217Zm5.58-.014a.795.795 0 1 1-1.455-.64.795.795 0 0 1 1.455.64Z" clip-rule="evenodd"/><path fill-rule="evenodd" d="M12 24c6.627 0 12-5.373 12-12S18.627 0 12 0 0 5.373 0 12s5.373 12 12 12Zm0-18.545c-1.777 0-2 .007-2.698.039-.696.032-1.173.143-1.59.304a3.209 3.209 0 0 0-1.158.755 3.21 3.21 0 0 0-.756 1.16c-.16.416-.272.892-.304 1.59-.031.696-.039.919-.039 2.697 0 1.777.007 2 .04 2.7.031.695.142 1.171.303 1.588.165.437.423.832.756 1.159.327.333.722.59 1.16.755.416.161.892.273 1.588.304.698.032.92.04 2.699.04 1.777 0 2-.008 2.699-.04.696-.032 1.172-.143 1.588-.305a3.208 3.208 0 0 0 1.16-.754c.332-.327.59-.723.754-1.16.162-.416.273-.892.305-1.588.031-.698.039-.921.039-2.699 0-1.777-.007-2-.04-2.7-.031-.695-.142-1.171-.304-1.588a3.197 3.197 0 0 0-.755-1.158 3.22 3.22 0 0 0-1.159-.756c-.416-.161-.892-.273-1.59-.304-.697-.032-.92-.04-2.697-.04Z" clip-rule="evenodd"/></g><defs><clipPath id="a"><path fill="#fff" d="M0 0h24v24H0z"/></clipPath></defs></svg>