<svg xmlns="http://www.w3.org/2000/svg" width="24" height="24" fill="none"><path fill="#575757" d="M12 0C5.372 0 0 5.372 0 12s5.372 12 12 12 12-5.372 12-12S18.628 0 12 0Zm4.615 13.539s1.061 1.047 1.323 1.534c.007.01.01.02.013.024.107.18.131.318.079.422-.088.172-.388.257-.49.265h-1.875c-.13 0-.402-.034-.732-.261-.254-.178-.504-.47-.748-.753-.364-.422-.679-.787-.996-.787a.38.38 0 0 0-.119.018c-.24.078-.547.42-.547 1.333 0 .285-.226.449-.384.449h-.859c-.292 0-1.816-.103-3.166-1.527-1.653-1.744-3.14-5.241-3.153-5.274-.094-.226.1-.347.311-.347h1.894c.253 0 .335.154.393.29.067.159.315.79.721 1.5.659 1.157 1.063 1.627 1.386 1.627.061 0 .12-.016.174-.044.422-.235.344-1.742.325-2.054 0-.059-.001-.674-.217-.969-.155-.214-.42-.295-.58-.325a.688.688 0 0 1 .25-.211c.29-.145.812-.166 1.33-.166h.29c.562.007.707.043.91.095.413.098.422.364.386 1.276-.011.258-.023.551-.023.896 0 .075-.003.155-.003.24-.013.464-.028.99.3 1.206a.271.271 0 0 0 .142.041c.114 0 .456 0 1.384-1.59a12.14 12.14 0 0 0 .744-1.593c.018-.033.073-.133.138-.171a.332.332 0 0 1 .155-.037h2.226c.243 0 .41.036.44.13.056.149-.01.603-1.026 1.979l-.453.599c-.922 1.207-.922 1.269.057 2.185Z"/></svg>